<svg width="30" height="30" viewBox="0 0 30 30" fill="none" xmlns="http://www.w3.org/2000/svg">
<path d="M24.873 17.3145H23.9824C23.2559 17.3145 22.6465 17.9414 22.6465 18.6855C22.6465 19.0605 22.8047 19.4004 23.0859 19.6523L23.6602 20.2148C24.2285 20.7773 24.2285 21.6973 23.6602 22.2598L22.3535 23.5547C22.0957 23.8125 21.7148 23.9648 21.3281 23.9648C20.9414 23.9648 20.5664 23.8125 20.3027 23.5547L19.752 23.0039C19.4883 22.7109 19.1367 22.5527 18.7559 22.5527C18.0059 22.5527 17.3789 23.1621 17.3789 23.8828V24.7793C17.3789 25.5703 16.7402 26.25 15.9434 26.25H14.1621C13.3652 26.25 12.7324 25.5762 12.7324 24.7793V23.8887C12.7324 23.168 12.1055 22.5586 11.3555 22.5586C10.9805 22.5586 10.6348 22.7168 10.3828 22.9922L9.81445 23.5547C9.55664 23.8184 9.17578 23.9648 8.78906 23.9648C8.40234 23.9648 8.02734 23.8125 7.76367 23.5547L6.44531 22.2656C5.88281 21.7031 5.88281 20.7832 6.44531 20.2266L6.99609 19.6758C7.28906 19.4121 7.45312 19.0605 7.45312 18.6855C7.45312 17.9355 6.84375 17.3145 6.11719 17.3145H5.22656C4.42383 17.3145 3.75 16.6875 3.75 15.8906V15V14.1094C3.75 13.3184 4.42383 12.6855 5.22656 12.6855H6.11719C6.84375 12.6855 7.45312 12.0586 7.45312 11.3145C7.45312 10.9395 7.28906 10.5879 6.99609 10.3242L6.44531 9.7793C5.88281 9.2168 5.88281 8.29688 6.44531 7.74023L7.75195 6.43945C8.00977 6.17578 8.39062 6.0293 8.77734 6.0293C9.16406 6.0293 9.53906 6.18164 9.80273 6.43945L10.3711 7.00195C10.6172 7.27734 10.9688 7.43555 11.3438 7.43555C12.0938 7.43555 12.7207 6.82617 12.7207 6.10547V5.21484C12.7207 4.42383 13.3535 3.74414 14.1562 3.74414H15.9375C16.7344 3.74414 17.3672 4.41797 17.3672 5.21484V6.10547C17.3672 6.82617 17.9941 7.43555 18.7441 7.43555C19.1191 7.43555 19.4707 7.27148 19.7402 6.98438L20.291 6.43359C20.5547 6.17578 20.9297 6.02344 21.3164 6.02344C21.7031 6.02344 22.0781 6.17578 22.3418 6.43359L23.6484 7.73438C24.2109 8.29688 24.2109 9.2168 23.6484 9.7793L23.0742 10.3418C22.793 10.5938 22.6348 10.9395 22.6348 11.3086C22.6348 12.0586 23.2441 12.6797 23.9707 12.6797H24.8613C25.6582 12.6797 26.2266 13.3066 26.2266 14.1035V15V15.8906C26.2383 16.6875 25.6699 17.3145 24.873 17.3145ZM19.7344 15C19.7344 12.416 17.6426 10.3125 15.0469 10.3125C12.4512 10.3125 10.3594 12.416 10.3594 15C10.3594 17.584 12.4512 19.6875 15.0469 19.6875C17.6426 19.6875 19.7344 17.584 19.7344 15Z" fill="#989898"/>
</svg>
